<svg width="153" height="132" viewBox="0 0 153 132" fill="none" xmlns="http://www.w3.org/2000/svg">
<g clip-path="url(#clip0_3_2)">
<path d="M76.5 11.7857C64.8884 11.7857 54.031 13.7636 43.9277 17.7196C33.8245 21.6755 25.7988 27.0117 19.8507 33.7282C13.9026 40.4447 10.9286 47.702 10.9286 55.5C10.9286 61.875 12.9634 67.9511 17.0332 73.7285C21.103 79.5058 26.8376 84.5005 34.2372 88.7126L41.6652 92.9816L39.3599 101.178C37.9939 106.358 36.0017 111.253 33.3834 115.863C42.0352 112.277 49.8616 107.411 56.8627 101.263L60.534 98.0189L65.4007 98.5312C69.3281 98.9866 73.0279 99.2143 76.5 99.2143C88.1116 99.2143 98.969 97.2363 109.072 93.2804C119.176 89.3245 127.201 83.9882 133.149 77.2717C139.097 70.5552 142.071 63.298 142.071 55.5C142.071 47.702 139.097 40.4447 133.149 33.7282C127.201 27.0117 119.176 21.6755 109.072 17.7196C98.969 13.7636 88.1116 11.7857 76.5 11.7857ZM153 55.5C153 65.404 149.585 74.5538 142.754 82.9495C135.924 91.3451 126.646 97.9763 114.921 102.843C103.195 107.71 90.3884 110.143 76.5 110.143C72.5156 110.143 68.389 109.915 64.12 109.46C52.8499 119.421 39.7584 126.308 24.8454 130.122C22.0564 130.918 18.8119 131.545 15.1122 132H14.6853C13.8315 132 13.0631 131.701 12.38 131.103C11.697 130.506 11.2416 129.723 11.014 128.756V128.67C10.8432 128.442 10.829 128.101 10.9713 127.646C11.1136 127.19 11.1705 126.906 11.142 126.792C11.1136 126.678 11.2416 126.408 11.5262 125.981L12.0385 125.212L12.6362 124.487L13.3192 123.718C13.7176 123.263 14.5999 122.281 15.966 120.773C17.332 119.264 18.3139 118.183 18.9116 117.528C19.5092 116.874 20.3915 115.749 21.5583 114.156C22.7252 112.562 23.6501 111.11 24.3331 109.801C25.0162 108.492 25.7846 106.813 26.6384 104.764C27.4922 102.715 28.2321 100.552 28.8583 98.2751C19.9219 93.2092 12.8781 86.9481 7.72684 79.4916C2.57561 72.0351 0 64.0379 0 55.5C0 45.596 3.41518 36.4461 10.2455 28.0505C17.0759 19.6548 26.3538 13.0237 38.0792 8.15706C49.8047 3.29043 62.6116 0.857117 76.5 0.857117C90.3884 0.857117 103.195 3.29043 114.921 8.15706C126.646 13.0237 135.924 19.6548 142.754 28.0505C149.585 36.4461 153 45.596 153 55.5Z" fill="black"/>
</g>
<defs>
<clipPath id="clip0_3_2">
<rect width="153" height="131.143" fill="white" transform="translate(0 0.857117)"/>
</clipPath>
</defs>
</svg>
