<svg width="11" height="11" viewBox="0 0 11 11" fill="none" xmlns="http://www.w3.org/2000/svg">
<path d="M0.585652 10.6279C0.50472 10.6278 0.424703 10.6108 0.350689 10.5781C0.276675 10.5453 0.210283 10.4975 0.155735 10.4378C0.100201 10.3785 0.0578243 10.3081 0.0313849 10.2313C0.00494541 10.1545 -0.00495992 10.073 0.00231823 9.99208L0.145235 8.42058L6.7474 1.82075L8.81065 3.88342L2.21023 10.4827L0.638735 10.6256C0.621088 10.6272 0.603373 10.628 0.585652 10.6279V10.6279ZM9.22248 3.471L7.15982 1.40833L8.39707 0.171084C8.45124 0.116848 8.51558 0.0738216 8.58639 0.0444657C8.65721 0.0151099 8.73312 0 8.80978 0C8.88643 0 8.96234 0.0151099 9.03316 0.0444657C9.10397 0.0738216 9.16831 0.116848 9.22248 0.171084L10.4597 1.40833C10.514 1.46251 10.557 1.52684 10.5864 1.59766C10.6157 1.66848 10.6308 1.74438 10.6308 1.82104C10.6308 1.8977 10.6157 1.97361 10.5864 2.04442C10.557 2.11524 10.514 2.17957 10.4597 2.23375L9.22307 3.47042L9.22248 3.471V3.471Z" fill="black"/>
</svg>
